<mxfile modified="2021-01-18T11:29:55.040Z" host="app.diagrams.net" agent="5.0 (Windows NT 10.0; Win64; x64) AppleWebKit/537.36 (KHTML, like Gecko) Chrome/87.0.4280.141 Safari/537.36 Edg/87.0.664.75" etag="h4l26HiKuU3ZS9ltOil2" version="14.2.4" type="github">
  <diagram id="Ht1M8jgEwFfnCIfOTk4-" name="Page-1">
    <mxGraphModel dx="894" dy="2123" grid="1" gridSize="10" guides="1" tooltips="1" connect="1" arrows="1" fold="1" page="1" pageScale="1" pageWidth="1169" pageHeight="827" math="0" shadow="0">
      <root>
        <mxCell id="0" />
        <mxCell id="1" parent="0" />
        <mxCell id="UEzPUAAOIrF-is8g5C7q-175" value="AWS Cloud" style="points=[[0,0],[0.25,0],[0.5,0],[0.75,0],[1,0],[1,0.25],[1,0.5],[1,0.75],[1,1],[0.75,1],[0.5,1],[0.25,1],[0,1],[0,0.75],[0,0.5],[0,0.25]];outlineConnect=0;gradientColor=none;html=1;whiteSpace=wrap;fontSize=12;fontStyle=0;shape=mxgraph.aws4.group;grIcon=mxgraph.aws4.group_aws_cloud_alt;strokeColor=#232F3E;fillColor=none;verticalAlign=top;align=left;spacingLeft=30;fontColor=#232F3E;dashed=0;labelBackgroundColor=#ffffff;" parent="1" vertex="1">
          <mxGeometry x="900" y="-840" width="730" height="410" as="geometry" />
        </mxCell>
        <mxCell id="UEzPUAAOIrF-is8g5C7q-195" style="edgeStyle=orthogonalEdgeStyle;rounded=0;orthogonalLoop=1;jettySize=auto;html=1;startArrow=none;startFill=0;endArrow=open;endFill=0;strokeColor=#808080;strokeWidth=2;" parent="1" source="UEzPUAAOIrF-is8g5C7q-177" target="UEzPUAAOIrF-is8g5C7q-178" edge="1">
          <mxGeometry relative="1" as="geometry" />
        </mxCell>
        <mxCell id="UEzPUAAOIrF-is8g5C7q-196" style="edgeStyle=orthogonalEdgeStyle;rounded=0;orthogonalLoop=1;jettySize=auto;html=1;startArrow=none;startFill=0;endArrow=open;endFill=0;strokeColor=#808080;strokeWidth=2;" parent="1" source="UEzPUAAOIrF-is8g5C7q-178" target="UEzPUAAOIrF-is8g5C7q-179" edge="1">
          <mxGeometry relative="1" as="geometry" />
        </mxCell>
        <mxCell id="UEzPUAAOIrF-is8g5C7q-198" style="edgeStyle=orthogonalEdgeStyle;rounded=0;orthogonalLoop=1;jettySize=auto;html=1;startArrow=none;startFill=0;endArrow=open;endFill=0;strokeColor=#808080;strokeWidth=2;" parent="1" source="UEzPUAAOIrF-is8g5C7q-178" target="UEzPUAAOIrF-is8g5C7q-181" edge="1">
          <mxGeometry relative="1" as="geometry">
            <Array as="points">
              <mxPoint x="355" y="-689.5" />
            </Array>
          </mxGeometry>
        </mxCell>
        <mxCell id="UEzPUAAOIrF-is8g5C7q-199" style="edgeStyle=orthogonalEdgeStyle;rounded=0;orthogonalLoop=1;jettySize=auto;html=1;startArrow=none;startFill=0;endArrow=open;endFill=0;strokeColor=#808080;strokeWidth=2;" parent="1" source="UEzPUAAOIrF-is8g5C7q-178" target="UEzPUAAOIrF-is8g5C7q-182" edge="1">
          <mxGeometry relative="1" as="geometry" />
        </mxCell>
        <mxCell id="UEzPUAAOIrF-is8g5C7q-200" style="edgeStyle=orthogonalEdgeStyle;rounded=0;orthogonalLoop=1;jettySize=auto;html=1;startArrow=none;startFill=0;endArrow=open;endFill=0;strokeColor=#808080;strokeWidth=2;" parent="1" source="UEzPUAAOIrF-is8g5C7q-178" target="UEzPUAAOIrF-is8g5C7q-183" edge="1">
          <mxGeometry relative="1" as="geometry">
            <Array as="points">
              <mxPoint x="576" y="-689.5" />
            </Array>
          </mxGeometry>
        </mxCell>
        <mxCell id="UEzPUAAOIrF-is8g5C7q-197" style="edgeStyle=orthogonalEdgeStyle;rounded=0;orthogonalLoop=1;jettySize=auto;html=1;startArrow=none;startFill=0;endArrow=open;endFill=0;strokeColor=#808080;strokeWidth=2;" parent="1" source="UEzPUAAOIrF-is8g5C7q-179" target="UEzPUAAOIrF-is8g5C7q-180" edge="1">
          <mxGeometry relative="1" as="geometry" />
        </mxCell>
        <mxCell id="UEzPUAAOIrF-is8g5C7q-201" style="edgeStyle=orthogonalEdgeStyle;rounded=0;orthogonalLoop=1;jettySize=auto;html=1;startArrow=none;startFill=0;endArrow=open;endFill=0;strokeColor=#808080;strokeWidth=2;" parent="1" source="UEzPUAAOIrF-is8g5C7q-179" target="UEzPUAAOIrF-is8g5C7q-184" edge="1">
          <mxGeometry relative="1" as="geometry" />
        </mxCell>
        <mxCell id="UEzPUAAOIrF-is8g5C7q-203" style="edgeStyle=orthogonalEdgeStyle;rounded=0;orthogonalLoop=1;jettySize=auto;html=1;startArrow=none;startFill=0;endArrow=open;endFill=0;strokeColor=#808080;strokeWidth=2;" parent="1" source="UEzPUAAOIrF-is8g5C7q-184" edge="1">
          <mxGeometry relative="1" as="geometry">
            <Array as="points">
              <mxPoint x="739" y="-369.5" />
              <mxPoint x="674" y="-369.5" />
            </Array>
            <mxPoint x="674" y="-349.5" as="targetPoint" />
          </mxGeometry>
        </mxCell>
        <mxCell id="UEzPUAAOIrF-is8g5C7q-177" value="Amazon S3&lt;br&gt;Bucket&lt;br&gt;" style="outlineConnect=0;fontColor=#232F3E;gradientColor=none;fillColor=#277116;strokeColor=none;dashed=0;verticalLabelPosition=bottom;verticalAlign=top;align=center;html=1;fontSize=12;fontStyle=0;aspect=fixed;pointerEvents=1;shape=mxgraph.aws4.bucket;labelBackgroundColor=#ffffff;" parent="1" vertex="1">
          <mxGeometry x="249" y="-749.5" width="75" height="78" as="geometry" />
        </mxCell>
        <mxCell id="UEzPUAAOIrF-is8g5C7q-178" value="AWS&lt;br&gt;CodePipeline&lt;br&gt;" style="outlineConnect=0;fontColor=#232F3E;gradientColor=#4D72F3;gradientDirection=north;fillColor=#3334B9;strokeColor=#ffffff;dashed=0;verticalLabelPosition=bottom;verticalAlign=top;align=center;html=1;fontSize=12;fontStyle=0;aspect=fixed;shape=mxgraph.aws4.resourceIcon;resIcon=mxgraph.aws4.codepipeline;labelBackgroundColor=#ffffff;" parent="1" vertex="1">
          <mxGeometry x="429" y="-749.5" width="78" height="78" as="geometry" />
        </mxCell>
        <mxCell id="UEzPUAAOIrF-is8g5C7q-179" value="AWS&lt;br&gt;Organizations&lt;br&gt;" style="outlineConnect=0;fontColor=#232F3E;gradientColor=#F54749;gradientDirection=north;fillColor=#C7131F;strokeColor=#ffffff;dashed=0;verticalLabelPosition=bottom;verticalAlign=top;align=center;html=1;fontSize=12;fontStyle=0;aspect=fixed;shape=mxgraph.aws4.resourceIcon;resIcon=mxgraph.aws4.organizations;labelBackgroundColor=#ffffff;" parent="1" vertex="1">
          <mxGeometry x="700" y="-749.5" width="78" height="78" as="geometry" />
        </mxCell>
        <mxCell id="UEzPUAAOIrF-is8g5C7q-180" value="AWS Single&lt;br&gt;Sign-on&lt;br&gt;" style="outlineConnect=0;fontColor=#232F3E;gradientColor=#F34482;gradientDirection=north;fillColor=#BC1356;strokeColor=#ffffff;dashed=0;verticalLabelPosition=bottom;verticalAlign=top;align=center;html=1;fontSize=12;fontStyle=0;aspect=fixed;shape=mxgraph.aws4.resourceIcon;resIcon=mxgraph.aws4.cloudwatch;labelBackgroundColor=#ffffff;" parent="1" vertex="1">
          <mxGeometry x="856" y="-749.5" width="78" height="78" as="geometry" />
        </mxCell>
        <mxCell id="UEzPUAAOIrF-is8g5C7q-181" value="Account&lt;br&gt;Baseline&lt;br&gt;" style="outlineConnect=0;fontColor=#232F3E;gradientColor=#F34482;gradientDirection=north;fillColor=#BC1356;strokeColor=#ffffff;dashed=0;verticalLabelPosition=bottom;verticalAlign=top;align=center;html=1;fontSize=12;fontStyle=0;aspect=fixed;shape=mxgraph.aws4.resourceIcon;resIcon=mxgraph.aws4.cloudformation;labelBackgroundColor=#ffffff;" parent="1" vertex="1">
          <mxGeometry x="316" y="-569.5" width="78" height="78" as="geometry" />
        </mxCell>
        <mxCell id="UEzPUAAOIrF-is8g5C7q-182" value="AWS Service&lt;br&gt;Catalog&lt;br&gt;" style="outlineConnect=0;fontColor=#232F3E;gradientColor=#F34482;gradientDirection=north;fillColor=#BC1356;strokeColor=#ffffff;dashed=0;verticalLabelPosition=bottom;verticalAlign=top;align=center;html=1;fontSize=12;fontStyle=0;aspect=fixed;shape=mxgraph.aws4.resourceIcon;resIcon=mxgraph.aws4.service_catalog;labelBackgroundColor=#ffffff;" parent="1" vertex="1">
          <mxGeometry x="429" y="-569.5" width="78" height="78" as="geometry" />
        </mxCell>
        <mxCell id="UEzPUAAOIrF-is8g5C7q-183" value="AWS&lt;br&gt;Parameter&lt;br&gt;Store&lt;br&gt;" style="outlineConnect=0;fontColor=#232F3E;gradientColor=none;fillColor=#BC1356;strokeColor=none;dashed=0;verticalLabelPosition=bottom;verticalAlign=top;align=center;html=1;fontSize=12;fontStyle=0;aspect=fixed;pointerEvents=1;shape=mxgraph.aws4.parameter_store;labelBackgroundColor=#ffffff;" parent="1" vertex="1">
          <mxGeometry x="539" y="-569.5" width="75" height="78" as="geometry" />
        </mxCell>
        <mxCell id="UEzPUAAOIrF-is8g5C7q-184" value="Core OU" style="outlineConnect=0;fontColor=#232F3E;gradientColor=none;fillColor=#BC1356;strokeColor=none;dashed=0;verticalLabelPosition=bottom;verticalAlign=top;align=center;html=1;fontSize=12;fontStyle=0;aspect=fixed;pointerEvents=1;shape=mxgraph.aws4.resources;labelBackgroundColor=#ffffff;" parent="1" vertex="1">
          <mxGeometry x="705" y="-559.5" width="68" height="78" as="geometry" />
        </mxCell>
        <mxCell id="TLVSV1qMKydA5qrPhYBB-1" value="VPC" style="points=[[0,0],[0.25,0],[0.5,0],[0.75,0],[1,0],[1,0.25],[1,0.5],[1,0.75],[1,1],[0.75,1],[0.5,1],[0.25,1],[0,1],[0,0.75],[0,0.5],[0,0.25]];outlineConnect=0;gradientColor=none;html=1;whiteSpace=wrap;fontSize=12;fontStyle=0;shape=mxgraph.aws4.group;grIcon=mxgraph.aws4.group_vpc;strokeColor=#248814;fillColor=none;verticalAlign=top;align=left;spacingLeft=30;fontColor=#AAB7B8;dashed=0;" vertex="1" parent="1">
          <mxGeometry x="520" y="-690" width="130" height="130" as="geometry" />
        </mxCell>
        <mxCell id="TLVSV1qMKydA5qrPhYBB-6" value="" style="shape=image;verticalLabelPosition=bottom;labelBackgroundColor=#ffffff;verticalAlign=top;aspect=fixed;imageAspect=0;image=data:image/png,iVBORw0KGgoAAAANSUhEUgAAAOIAAADnCAYAAAAD3YpkAAAgAElEQVR4Ae2dB5hV1bXHmd77MI0OShFEEBBsCIigKKiIYgmIomDvidgQe8ESYy8YC4pi96mxP3tBYy/RJHbNS0w0xhZNWe/7rZl13HPmtrlz63DO9927T91lrfXfZe211+4hwRFQIKBA2inQI+05CDIQUCCggARADIQgoEAGUCAAYgYwIchCQIEAiIEMBBTIAAoEQMwAJgRZCCgQADGQgYACGUCBAIgZwIQgCwEFAiAGMhBQIAMoEAAxCUz473//K/w4QoXuPTtPQjZijpI8uD/70PJmz+x+ECaeAgEQE09TjdGEmAsTZPdepGS///57+eqrr+SLL76QTz75RN5880159tln5eGHH5a7775bVq9eLTfddFPIH894h3f5hm+Jg7iIk7hjOSzP9q7/2u4HYWIoEAAxMXTsEEssoAMUf/zjH+Wxxx5T8Fxz9a/l9NNPl0MOOUR2m7urzNpupmw5aYqMGzNWhg8fLoMHD5YBAwZInz59pHfv3iF/POMd3uUbviUO4iLOgw86WE4++WRZsWKFpkna5OGHH37oUIbgRuooEAAxRbT+9ttv5dVXX5V7771XLrzwQtl/v/1km222kQkTJsiwYcMUPE1NTVJbUyvVlVVSXFgkBXn5UpCbJ3k9ciQ3J1fy8/KkID9fCvMLpKigUAp9P72XX6Dv8W5ebq5+SxzERZxVFZVSX1MrLU0tmiZpkwfysnjRYrngggvkvvvu07x+/fXXKaJOkEwAxBhkIFy3LFKr99e//lXWrFkjV61YIYsXL5att95axo4dK4PWWUcaGhqlrLhUevToITk9ekg+QMkvUKCUl5VLTWW11NXUSkN9T2ns2eD9mhuapKmhUX/NjU0S6mfPm5zviIO4etbWS01VtVSVVUhpUYmCmrTJA3kpzC+Uhp4Nss4662hep0+fLvvss49cdtll8sQTT8hnn30WlVouTdzzqB+u5S8EQIwiACZMhPz+85//eAoY99Nvvv1GXn75Zbnm2mtk0eLFMn3r6bLhhhtKr+YWT9BzeuRoa1VaXKJAAzShwOSCzz1v6tnogdK9H+7cBTLf6s+A3NAeyOSltrpGykpKNY/ktbWiyJHGhkZZf+T6MnXqVK1UrrnmGi3r19+EbjGNVtDHaObSKjjvSIEAiB1p0u6OK1TtHoio8gOFyIW/+pXsOW++bLTRRtLS3CK5PXJViBHkkqJi6VlX3w5wCH048KTzvrWmbuXQUNdTqDgMmLk9cqRXS4uWddddd5Xzf/lLefrpp+Uvf/mLnzx6HQAxJFk63AyA2IEkkW+g1HjxxRflgl9dILvttpu2enW1tToWo4tXWlwqCK8JdTqBlai0rSyEjC9dYNbW1MioUaNkzpw5ct5558lzzzwbs2Y2MqXXrqcBEGPk9/vvvy833HCDLFq0SMaPHy/1dfVeq4dg0g1EUGlN6AK63UL3PFHgSEU85Nt+pGfnVs7G+p7alaUCys3Jkfq6Ohk7ZozsvXCh0H39wx/+ECN1g9fWaiC63U7O/QdawwcffFCWHHOMahV79+ql4z26aRWl5YJCxFoLAOgJaifHcqkAVTxpUJ5Q31k53S4s71WUlSsg6ZJDl2nTpsnRRx8t999/v3zzzTftyGu0d8N2L6xlFwEQHSsY4/2f//JnueOOO2TfRfvKkCFDvJYP9T+tQEtjswpaKCFdm+8BvpamZgUvY2MAyW/I4CGy7777yurVN8unn35qZNYwAGIrOdZ6ILpSgZCsXLlS5s2bJ4MGDVIhysvJVbU/tT8gQ/ESrqVYm0EYquzaS6jrqdMzALJP7z6Cgmfl9dfLRx995JI+pCa63Qvd/GKtBqLxFgBee+21MnfuXK3REZriomIFnAKwoXV8hLBZtyyU4AX3Wuc8jUZaYTW0dt+hTYlqX3volM7s2bPlisuvkA8//NDYsFaHaw0QQ40BAeDll1+uAOzZs6e2gCWFxdJY3yo81vKZYNl4MADcT0YGkWhhdOMdzo1+zFVS2TFvCSAvuugi+eCDD8ICMRTvwr6cpQ+6LRCNeaHGIH/729/k9ttvl9332F0KCgpUKLBoofVj/OcKkF+IIgle8Cw0QI2eFgJIaIVyB0BitrfTTjvJTatWyeeff+5Byc9DjCm669Htgfjvf//b4x1G1o8//rgcdNBB0rO+dfqhorwVgAa4AEyhwZRIuhggiRNQYlsLIGuqq2X//fdXI/jvvvvO4xsngDAAYjuSZMeFtYSW2/fee09OOeUU2WDkSGU6c3+0gGY2Fihhkg9AP5hdQPKstKREeTNi+HA58cQT5Z133jH2aWgtZLub3eSi27aIxh/mr2699VbZcYcd1bDatKA2XvGEof4nhYxfYILrJIK0je5YJ8ETDNMxRM/NzRWMzll3yTrK7n50ayC++sqrcuyxx0plRaXWtCgHwrWC1jIGoEsi6JwVIVYR0hPx0xwewSu6qxUVFXLUUUfJ888/362nOLISiNZFse6nXVutyWp0TKxGtXVDK8srWgGYocbWfkEMrlsrg+aGRl0/CSBZ6MxiZr8yx2TAeO+XBbuf6WFWAhGiugxwic+44uc//7nWpNg/mgG2reULhDw1LV4i6czwgUXQZaWlcvDBB8sbb7zh4cp478qD9zCLTrISiC7xjdZo2TBL22qrrVQdXlFe4c1bwUjmBhMpHEFcqaOndWPxLoDngcmTJ8ttt90meD2wI5RM2LNsCLMSiBDWCM853ZVzzjlHu5+sBGB1O0CBgaaMsTAAUOoA1FVawz/isHEk15zn5ORIbW2tnHnmmfLnP//Zw5krE97NLDnJCiC6BObcvf7d736n7hxKSkp0SQ5dUUDHgD8AX/aALhRo4Z+B0P+cbmpxUZHaBaOUs8Nkwx/a80wNswaI5qLCCPzjjz/KQw89JBtvvLHWkChktAvTTZYg+QUvuG5fqcBreE7rOHrkKLnnnnvkn//8p+IMGXF/mQo+N19ZA8R//etfXkvIePDXv/61DOw/UPJz8qSuunUOKhDW9sLa3ekBGBmGFOTkSZ9evdU73j/+8Q8PjFhVGSBdoc/E86wAohEUAkJofH/W19erS0EmgE3g6MbQnbHrIFw7gAnPsZSqrq7WeWNsiTkAoWvimIkAtDxlJBAhoB3uOe78sBMtLy+XstIy7YqiDQ3At3YAzl+x+o0wSktKBV0Bi5Dxbm6HK0N2L9PCjAMiRLNuqEvAd999V3aaPVtXS7BSAqbQNfEzJ7heO0FpfMeIPy8vT2Zss42gyLMDHQOto4V2P1PCjAQiAHRB+Pprr8v2O2yv9ocsnQkAuHaDzUAXLqwsq5Ci/AKdU37u+ec9rLmVvHczQ04yDohWaxl9XnrpJZkyabIUFRZKZUVF0AI69prhBHFtvk8ljRUVHs2L8gtli4kTdTMe5MkqeLeSNzlLd5iRQDSi/Pa3v1Wfmaio0Y4FLWHQEsZayaA3qK+t0z0/Rm4wUl544QUTq4xU4GQMEK22MmrhPRrHtXiWNkuZwEwtAGKsQDRZQXbYjGf99deXRx991MSrXZgJLWRGANFPCEC40dix7ZYuxcyAoOsWdN8dGcDCipaRCp0FxxiB2GGVv1/+7Hkqw7QDESKgJbWDLsRmG2+qhKutqgm6o45QBZVRfD0ChjQYfRTmFci4MWPkqaeeMnHzlILpBmNGANGo8vbbb6vJGqvoWRgKAenrB/OE8QlgANyf3F8aGJEttsdD/5BJR9qBaMRgAnbKlCnq0t5W0geG2wEAE12ZIFus0Nl8882FuelMOVIKRGv+LTQiAMIdtt9ex4R49AKAMCDQkgZATDQQkalWNxw5suWWWwqbC7kHsmk/936yz1MKRAqDZQM/O/7+97/LYYceqiAsLy3TOaBEEz+ILwC0KwNU9Cwyppu61957C7s7u4e/oXCfJes8pUC0msYKyuT9WWedJVVVVbqhJ8QKWsEANC5oknWOnGGBU1VeKcuWLRP2veSgkTA5TRboQsWbUiCSAQMh57fccov06dNHCvMLPAAGipkAiMkCnz9eZI2NZZuamuTqFVd7AOz2QHRByH7zo0ePVl+jrKr3EykR17YsitovlPaVe7YCPNTzROQhiCN6xWJ8IPTTK9l8YcPZgvwCWW/YMHniiSe8xsqVVe9mEk9S3iJSlt///ve6iSWeuZhsNaD4mdDVa+vmWvwGTIvXntt1EEYHTbJoZCA0XrkAdM+TkT5rWgsLCtQpld+7eBKx1y7qlAOR1fWHH3aYFpwBcyrAQBpsoEnID6Ng/eFyP0xrmQyGB3G2Aj0UsJQvjU2e/1mujV68TyVq2nS7n6iQtNRIvKhIFi5cKLawuB1SknyRciBeeumlutc6GlLb+jpRBHXjgXlcNzU2SUVpmWplcVTr/tjVFgbDCPu5cQTnyW0hARY/eODuMOzyqKy41ANksvhhvMcHTlVFlSxfvjzJsOsYfUqBiGkRW2Gzr4EBIFnEBYi0elXlFTKgTz/ZdsYM2W233XTH2u2331423WRT3TDTZXpRQaH0rK3zauVk5W1tjReBV+DVtro5cWnP/XHjxsm2224rO++8s+y6224yc7vtZN2B66h3PmhmlWsy6Efe2JadCmHAgAHywP0PdERLEu8kDYh+zRP+J9lUJD8vX9hwBMJD2GQSF7Djy+Tkk05WKwpcbfBjZ6iXX3pJ7rrzLjnvvPN0bwU2zBy5/kjBOzgCUpCXL/U1tdLS1n0Nx/xklyFcutlwX4HXwJ6TTdJQ9xP4oDG03mHHHeSwww6Tc889V+684w5Zs2aN6g8+/vhj5dMf/vAHOWf5ct22DV1CssuslUR9veTl5skWW2zRwd1GMhU4KQHif/77XznhhBOkqKhIJ1K19kmBMXNRYZGMGLG+vPH6Ty7aw1Vq7On+yCOPyKmnnqot5/oj1lfDc0CJtQ959vtIQTACIIbuvkIvxuWMvaAh4Ftv6DDtkUBjaM223dGcO6E8GTdurC4MTzYQiZ9eVHVFlSA7Rx55pLCnJoe/YQknR/HeTxoQLfOEEL2lpUX3LkgVCEkHAVi8aLF8+cWXHn3cWs09914QUe/RDz/8sCw55hg1QmdHIuIqL2t1WOWWIQBieyBCG35seWA0Gz9hghx++OFyz733yv/93/+5pPbOXUF3+fL111/rt8Tl0j2ZoCQdHBiznfvdd92leXTz52U6gSdJBSL5xI50+lbT1OmTTVUkk4gWt3ZLS0vV/6lrUucS1M5dxvtp++KLL8ryc87RbnVxYZEKV3VVqz0sDAuA2ApEaEHXDtoAmsL8Qpm0xSQ54/QzdHW8u9TNpXEoHvj5wf6WlZWVqlcw/iYzpCzIKtNrkydNlg8++MDNclLOkwpEzIaWLl2qBaqqrFRGJZOAFjfaWAbdI4aP0HGHSzljPPfs3Bjvv3a/w1J/+dlny9Zbb63dJITNDNRhnKUNMO3cH/q7tuHeDQVuNw3OY/n50w8Vr73jPvPn094JFZIPAGhdUObjMKY+47TT2+3aZLQ0GvuvjQd2n9DuvfbaazJ+/HgpLioOS9tQeevKPcpFmXDrz+5i1kV18+XmtavnCQOiEdiIR8bQPPXq1UsVJiY4XSFOrN8CRICy66676qA/GpEszxba+/5r7mOtT+UyceJELVcuaydraqVX2zxlKIG2e66A2z0LjT4ItTvnSZlp3Wsqq3XswtwrNpIVpeVSXlIq5cVtv5JSvccz1PBUEiyGNSWHG7+dE7elb6HR2K4J7Z6Fdo98kgbKjYKCAtlkk03kuOOO67C8yKWjnftDo7kb2jsYZe+9cG/lqeUhFSF0YpqtZ0OD7jpN3siT5cvNa1fPEwZE875mmfzyyy9l2xnbqvlQKrukxiCAiEdwM+aNl1DhCI/PzGOXHCujNthAp2PotuInBSCpoLINXNtWcCa45M3ODQxcQ5/q8kohDrTK/FgzRxn4oTgoKSpRRVdtda3w4xv8saCN5Mc5P+6zzAcw4oSZVsTiyumRoysO2BqbqRqmdtBgkwfLj5tH7lt+ja6EvEvZiFuVMOutp9rPV1/9aTOYeOkd6jv2OTn3nHOVFpp2ChR9Vk7oSUUzcYuJ3vjWZMJkPVSeO3svYUA0q3XLwEUXXaQtBtbtLhNTcU4LUlhYqPuvW37iDaMR/ZmnnpYFCxbowB6Bp+UCjJSzZ33rdgBuKwdjy0pKdZ8/QIYvldKSEm3leDZg4EB1dLTR+PEyadIk2W7GtrLn/D3l4EMOkSVLluhKASoYJp3Ziu7888/XH+dnn322nHnWmXLKKafI0UcfrZt6LthzgcycOVPjonu3wQYbyMCBAxWwtJ6kzXIg8oKTJbxlkw/m1Nx8G9+4R5eNfLM1GnOzKOMSKZQuryxe9r4sRYESYqtvy1syQnox9EKo1ND2ckSTCTf/sZ4nDIiWORL++JNPtKUozi9M+sR9KOJDuL59+rYz4o2VIOHeM4EgpNJxFUBfffWVXHnlldpdzc/P1zGx7VRMFxH/mtYqUbsiyOuss45MmDBBew2YVTG9c8kll8idd96p+aZ1QUnA/CtrNtnpKJzCI1SeeZdv+JY4iIuxFo65SIO06GLvt3ixzJo1S7XD6w4eLDXVNd60DS0oCgvb9JVWkNaZ7jigprL1b6Xtr5CNbqHyGO2eK1NrXlgjw9dbT7vfoXierHvWI6DyXHfddT3v4W7eopUjlucJA6IlRjfimCXH6B4EdJEgUCq7E6RHtwvLmTfffNOyFXcYiuCusLmCxpzXgQceKH379lVhZnkXoBs4YKBajUydOlX23HNPWX72crnv3vuE9xn/uIqAuDMa54cMKRhGoIy6/4EHdAKdFp6dl7F0ofWsrKhU22CA2dzSLHsvXCisnnEPo5NbQfHcpY/7fizn7rd/+OMfZOvp06UgN8/rYRlIkgVCixf5VcVNcbHy193+LZZyxPJOwoH4zDPP6LgCraUVJFWhMYZu1ty5c2NS1MRCpGjvuALDu6tXr1ZBxpLo+OOP1xYIx1jMiWXLgXE+eWbfwRNPPFGmb721dm+vueaadpPw/rInunwW/1/+8hfdkBbe0m1GpozfqZAvwMiYmGmUxx57LNHFlIQCkZp98eLFqvJlPilVLaExhPEDacKsQw45RGt6KGbMTDj12iK0+C3kNhPXX3zxRdgkedd9P+yLGfKAsvzpT3/ycpPq/FOJMUaGt2jFjecWJhuMyBU9PBRqe81fIF+37cPoEaSLJwkFItYoLc3NrSrfFA6qASAM4WdAPOnkk4RanSPZAm/xhxNOumvWnY32bhf5mbDPLZ+hInTLEum9UN925p4bN2NeFFQKxLZ5W/idSuUNslVWXKJTNv9z992dKUrUdxMGRPrN8+fP18E8anQynexaKlz8MAtfOIxXOVyGRqVIHC8Qv/uzNCPdiyOZlHwSKs9WHkJ/pcL7yTrcuDm/7LLLFIgGvlS1hiZnyDSyjQKLFSKJHGrEDUSXSDDiwQcflLraOmHbNGuZrACpCK1bSloA8ZcX/NLTbPrzmmjBcePn3L22tPz3wr1n76c6DJUfy7MbuuepyKOlR1orVqxQ3po8GSDtOlWhGkxUVXmT/OSNfFJJxXt0CYhGJMaGc+bMkdKiktY5qBRNuBrhmesxvzcwByBefPHFIQERL6GC79JDAZMxUr/66qvbtYjG/1SGtIrMs5YUFKm7l2++/VYJQz6jrSSJRMG4gEiiLoEef/xxndxlroUJX36p7jYYMwIgRmJ3dj+77rrrFIjW40pHi6hmivUNarmEVdIDDyRmAXFcQISdBkTGhmhKsWRhriWdY0MDY9AiZjfgwuX+qquuatc1NX6nMlRDjZ6NUltVrba+8+bNk2+++cbLsuHCuxHjSdxAtPjZzKOhocFzZ2C1lGvgnApCkS4/akuAeM6553TKEsXKE4SZRQETbEKGG/CWyt7kLBWyZWlYmsgYvT56gPX19e12l4qXel0CIn1irO2Li4vVxjJdraESqL7BW0EPs5iE/tbpv8dLoOC79FLAgMj0xbnntRp+GzAAhIHD7qUqRNarq6q1J3jwwQd71lGW385SrUtAZAUCRsQsFYEoqSJCtHQAImvI/tE26RovcTpLzOD9xFPAeEeluvTEE9PeNXVlD5lXZ1P9B0hXV57EDUQIxLwOJj+p8k/qEsF/7taMAJG+u7llMGYmXkyCGFNFAdydYC0Fb433Ls/tXipDbRUrq6SsrEwdYHVFzuIGIobCuCXUfnIKPGxFIzBMsVaZVR9TtpikRtUISlcIlCpBC9KJTIEPP/hQ3StmEhCRSeSuorxcpm21VTsTwMil6fg0JiAiyH5hfvTRR3UNHpOb6RobhgMnXrgG9h+Q0GVQHUkX3EklBVAKrj9ihG4aYxVuOP6n8j55AQN1dXVq3G808ePF7ocLOwVEixwlzZGHH6FLYzJlysIlPrUUi1yZALbD8m7XQZhdFGDnsML8/LQYjLiy5T+nEcLsjQn+BXvu6WnqkbfOyFxMQAR4bqQfffiRDF1nsHZL091P9xPGrunCsATJNKfZJXZBbl0KYDOM7bDbLTU+pzukRWSqDmNwthjEKbJ7uLhx7/vPYwIikbmrw1nhzeai2JWyJCXdxAiVPkzbYdb26sSWQsdKED+Bguv0UwCl2x577JGRQMQhMa0i3dPy8nJhvSZHZ+UtJiASsRm00jrus88+Ul5ark0yE5uhgJDue3SZGxsaBV8nwZHdFGBBwaABA9VyK91y5U8f+QeI9AxRXO6+++5eo9UZMMYERDdCHAb3799ffYdkmpLGiERXQV0OlpfLjTfemN1SGORe7rrrLmlqbPT81dhwiG6hnRvv0xWCBebTcZPC/p92uNixe6HCTgPxzrvuElzQV1ZknrYUpsAc7AHpmv7iF79Iy153oQgd3IufAjjAwoMaTrhYJQ+PAZzxO13gc9MFiOrtraxMVq5c6RU2oUC0WDHwxmKF/QYxeqXr52YmXecuQzjPyclRN3+03hyxEsPKGYSZQwHjHU62Fu27qHWc6AAxXTIXKl2cLdMq7rtoX8/kLVZKxtQiWmSffvqpjN5glJQWFXu1UqgMpfqetoJtbjJwVzh27FjPyxiMNGZaOYIwOyhgvDP+vfX2W+rol6kp001Q8aZa3sKmV9+g/k9xldnZ/TI6BcT/+Z//kerK6owwafMTAzCyFIuVIHhRM+Yhcu55dohgkEujgJ939913n/Tt1095TXfQuql+eUjHNTMIzCSUV5S3m9y3skQKYwYiWtPTTjlVV1rofoEZNG1hXVPcvy89YWmnuwWRCBQ8yywKMKd42mmn6V6beFVPB+DCptnm/xQwHnvMsergOVbqxQzEv/3tbzJn9k66RyCWBGEzkyKAWneUfFAz5uXlyVZTp8of//jHWMsevJelFGCD0x2230HHi81NzSqLrjykUzZpFNggaKupW3XKr27MQHzj9ddl8KB1deIynQUlbYjujg1qq2qkvq5e97rwd2WyVNaCbEehgE5pNDWJ7a2SKUBEPmkR2Zj32WefjVKKnx7HBESEe9WNN+rYsNWaJr3aUpfoDT1bpyrmzZsveIPmCMD4E4O725nxltU/7NuRaWZvyCZTeyUlJXL55ZfHLIsxAZHx4TFLlkhBm18a224s3S0j6TNeZaX0b37zG0/mjFnejeCk21DA5S2u75uam6SkuERNLVPtniWc/KsReFGxHHTQQZ5v3WgMiAmIuvZw1izdwgtXcqA+XCZScd9Nn41R2LaMPNrhMsvuBWH3oYDxF6dNBxxwgDe36PaUUiGHodJAX8GwCdtTNvJhJ65YjpiAiMnOsKHDdGNLFwShMpKKe5YHtGZ4CGCjFDtovY1Rdi8Iuy8FzLE1m64ie67uIBWyGCoN9sVkB61+/fp589nROBATEPHdiBfvyvLKjFkEDBjZ+ZYdlz766CMtJyDkFxzdlwJUsvyMz2yMs+OOOwo9o8aGnzanCQWQVN4rZz6xvFxYRxlLw9ABiPaRhRT4vPPO08FnKnd4ikY0ush5+flywQUXeNtzk1fybXmPJo7ue+65+53dt9B9Zuf2zEK7H4SJpwA0hs8GRJbnrbhqhe5OrStuUjR9Fkk+6Z6Sl6KiIjlx6VLPA3gk+YgKRArKoJPtqGzj0UiZSMUzWsOS4mIZOnSo4ELBPShspAKHezfcNxZfuOfEZ88sdNMIzpNPgbfefEs2GjtO2Bg2FfIXKQ1TGOlmNYVFssfuu3sNRST5iApEXBJuuvGmUl5cklHW7qit99prry6troAw/p9fbPzPwxHT7lvojye4Th4FWJ2x//77Z8ZURn1r95geG2t2cTdq3gSNAqFkpAMQ7WULP/jwA61lWHFhq/FNWRKpZkjms571PbXZv/TSS71FmJbfzoRGEAujfct7od4NdS9aXMHzxFGAxeq44y/F83aaPQqasgiMoDmtra2Vt956q11hQ8lLVCC+8MIL6qGK5R3NzgaRyQRatLgxIRo0aJCw+U0iD1r/zz77TFg+xe/9999vt69BpLRQpb/33nsxq6sjxRU86zwFnn/+eRmx3nCdYosmP8l8DgDtZ0B88sknvQKFq8yjAhFXE9XV1Ypulp6kuzWEiAV5+bLtjBldtiuFKL97+3e6WuPcc8+VQw89VH72s5/pWsbddt9NZs+eLYcfcYTuVHvFFVcIOyIzL+Sv0ZhYPvLII9XP64K9Fsill1wqn336mUd894RvTank3g93jjOiVTetkmuvvVb9oVx73bWqicPeMpbjw48+1H38+A5/KuyodNttt3ma5ljiiPcdPMGTHulec+01WoZHHn6kA/3ijd/97tNPPpVddt4lI7qnhhEWCrOIHhqYzFjo5p3zkEC0lwkvvPBCVcPqiosMWQjM+PCII47wXOr7CxXq2spkz95++205e/lydQwLsIkz2q+5uVk3y6QrZMebb74pI0aM6PDtsmUneTvKkrb9+BYFmGn9LB57btcW/vrXv6jMGscAACAASURBVNZdmN28YUl066232isRw9tvu11qqmva5Q8fnKnw5YO23c035zO3m+lpESNmvJMP1SX/0qWaXjJbvM7EzSxDaWmpnH766V6Z/XJoxYwIxH/9+KO6JEQNa/5LDe2dyVAi3yV9GAqTbWtuK0wsISDAAGDLLbf0hKS+batx1M60+i2Nze1+6iCosUnfP+OMM9qB6Oyzz9Zar7SkRFqaWr/L6dFDNt1kU3nttde8LBnQwjHCnnsftJ3Qeg3oN0AdE/VqalH/mesNGSoP3n+//9WQ1w/c/4AMGzxEiguKpFdzi7BwevDgwfLQQw+FfD+RNy+79FKlGZrEnrVMclfIwQcd1KVxfbj8UcFdesklwlK4dMso8q5TGNXVUlBQIIccfLCnOQ2X/4hA/O7bb2XfffbVGpmpCzPfSSSwOhsXamE8BODSsbMHrRDdpN69eqmAAEDrbhNWV1RKUUGhFOQXtP3y1YkyOyFj5c8k7d133d0u2V/+8pfabWd6ByBaRbHFZhPbDdL9AMQk75VXXhHGNiwxC9dddYFIBYEjW4D4QBxAJH/pACK2yfU1dQrEgw48MClAhCnQBDlN9zI9ZACskI+C/HzZec6cDr2jdkIUrWv6xZdfyLTp03V9lWmDOgucRL9PF7l3794qwP7CRLu+9bbbpLmpSdcuWr4gGIqo3B45urpkQP/+2mLQagwZMkSVQrQktMIbjNxAXnn1FU3GgPXyyy/Ltttuq89pCYsKiqSpqUnOPPNMT9Fjrd3XX38ta9askeuvv14OP/xw2WijjWSnnXaS119/PWzWAyCGJU2HB1RsQ4cM0YrR+JuO0LACIHGxOGH8+Kj7YoRsEa2EH3/8sQwbOlQFNB0FctO07gY2hRuMHNmu22f5dUMTfruH0mO9YesJYAF8Fl9pcYnU1tTKmDFjVOFy1913654ZTzzxhDzzzDPahcNyY9sZ28rRRx/taUUNiMRPFxQlz2abby6zd9pJXf1/9dVXmrSbD0C4/vrrK2ht7ISJnrnfc+O0fKcCiG66NnZ171leLHSfuef23EK6ptAbWtNS0TV1W0S+tZ6Ahe49iyfWkHH/hPETpCivQL1v2+S6K0epPkdz2rd3H0FxFemICEQ+psvGGsRUF8CfHrUMDMV6Ytq0aTpVQMHCCQJjBhOqf/37X7Lffvu1mkFVVgtGudYSNjY2yimnnBKTYQBTFD/88EMkenZ45uaP6ZZhw4ZJbk6uMN4DjFjov/POO+2+4xv7LtlAtHTIAPQymnHtPrMMWt7CPbP3CP1ArKqs7ABE9307h3eh4rfnbui+x5TTrFmzpAd2pxli6mZTGC+++KKb7Q7nEYHIHCITkkSG4GZC4RDeXXfbLWpT7zKILgurRzASpxz8aqqrpa62Vq668qp2wteBQr4bbry+R1Evda5rxAhtJRjvUZatt95a6HmEO1IJxHB5cO9HK7/73AUiE+1oEQ884IB29Ka7juUJ00LuUjY3zVjPWRiOtRV0zQRZRc7oBdTU1og7lxiqPB2A6BKSrddqamoyymsbRN53330FP5ccbn5DFZB7y05cpn5YbUNVCEQ8OCB2dxW2VtTidEPO7edPh24v3Vj3ZytCvvvuOx0D0n3FEghDhMKCQmHPhPz8fNl0003l9ttv1+UyfI97BbpYfMeRbCCSBgB46aWXNG3LA+NWQOI/oAH3mbYhr/Y+Y+Uvvvii3esuEFFcIJSHH3aYvoPhxN133y3Hn3CCztvStWdKatWqVUoveBHrYXzC1O2www5rBWJ9+vdkQc6QOebh8T5nh+XXrgk7ANF9eO+992okJsDpqGWsS2ppAyB2jo219kSgJ0yY4I0NiYfy1NfWy9NPP63FNYAZgdxr/7lLHztHiMgXDqz4cb5s2TJ9DEg322wz7zlpm6YWRqGJte/s25kzZ6pVDxGkAohPPvGkrD+ideya35Z/aOZOv1hZCQHhxIkTtUz2Psot1ga6hwtE02YClOeee0522GGH1nLn5kouv5zWEK0uWzrcuGpVzDt5Gd8YOiw9sXUu0XQAJjfpCOEv035VlVVR530jAvGmm25q3Zq7sirtXVMIyw8hx9u4qwxxme8/V03asGGCwEAYi4NWlWmDRBxY4ZAvKg3myzg/4YQTNGrM5DbZZBO9hzD4BYRr+87yhpBad9UFIgAuzmf6Ypg8+sgjMWWdXg3THeyiHG764vnnnlONMPlubKPx+PHjFXChEkF3MHny5NYy1TdoJYeG2W9y6AKRMpL/cWPGqgEElY66OamsUkWO0gD61dXrSp+6unpd4mZjVgNbqPzYPSrdk08+WfMFLf20TjUYkTfKyI7C7NUZqQxhgchHzLlVlFcIK+GJNNUFcdMzwnYWiDffdLO0NLeoDSJlgNEFufly8UUXRySMMTeWcI+ftW4ZhqDR5SSPJ554on6K/SmtC/ego98omWtaSTbNIeQ9WkTr2rpAZFzJHOrQdYfIHbffLnTFvtTfl21h2/WXX2qPged0/wBiSWFxWCCuef552XD0hgqoXk2tY1cqD7+xstEC5dLUqVM1ryidsExab731OuzQ7ALR+EeIzqGstFRbChabI2MILM9Mzljoi8WS2ypHEmTylqlALCsrk4suuqjd2NhoaWFYIFITXXnllRlj3maMRFCPOuqomFtEFg5Ty6vRemOT1r71dXUqoEaErobRgLjNNtuo0quupk5bTKtgKFN9da1O/NbX16txPWNy9gIMBUSEFOD2buklW0+bLvss3EeVEygo3N+CPRcIP57P2Hob6dOrt35HRRFqQj8VQKTMlv/iomJ1I7HLLrvIwoULtZtKa11eUqbv8B4VU01llZx00kkee0IB0b1H1/SEpSdoBWHyYrROR0g5zMzt/PPP98zcvAI5JxGBCIpBc6a1iO4Y0WWEUy7v9Iwzz5CedT21tVHCVFZJ3z595IkQKzeofDCBQ1EQ6cd7brqRgIhwoNDAMPz8886TdQeuI2XFpdLS3Ky7G20yfoKsunGVKj7oRuKWhMXOttOx2yKSfwQMoUJIy4pKNC7ia/9ru99mEWRCmE4g2pweVku0dCgvvv/+e/WGTUuGUTsVBr0Cysj7eTm52puINIRw+YDi7ZhjjskoIDJGxLUiOx5HUkB1AKIVjI9AMUaroBohMIamI7Qajhbx4IMP9pQ1ll8Peb4TlCa0RHSHyDddICZYAYf/eOSRR4RVFhhah/utWLFC/vd//9ezmiGOSEB002AMNXz4cLXisekLWksUOv7DyuUCkW6vAZGQ1tHGVpy7P8aqaCp5bvxKFxAtD9YS3nzzzf7iagV4zvJzpDCvwOuiAlq0zE899VSH9+0GdDJaoTdAf4CMmLxY2dMRghkFYnGxzlVTyXNYfq0MhB2AaA8zBYjGRCMsRKY7E6szYcZqCCQEgRnUuADRvDC7RKGrRMWD0x9+LGGxn16Xl2sPYdGiRe1WXccKRFq8ocOG6nwmoKAs06ZP8yxrjPZu6AIRxlqrSJnQRPJjdQXzovbTe1XVWuba6tZxKemlA4iUEbrDR/yP7rrrrt6wwi0n51SOvXv11nyTV95nUyEUHZEO4yEtp7lXNHlJBwAtzXBADFWWrAMiJlOzd5ytC3dDFch/jzEG3ThM42AOQtqvb195qm2xpjGR77D7RHBQPmD8jV8cbAXRegHg6spWZQrbM+M9zI5Ygch6RvzsYFhgQNxqWkfLGouX0AUiLSIG1Ag1c3Ks+KDb4/7ce1QqvEdLSdnTAUQzcaMiJC/4PwrXRUPDjIEDKygQZsb1PWvq5Jzly12SdDg3HmIUgI9beJjJQLT8ugXJOiCya+z0raZ7Jm5uYUKdMy5rqK1XMz0EESCyTwZbzPmPJUuW6BwW+9thPExLo0vAqlu1xgaeefPmpQWI1LDVFVVC/thBl6VM999/v9ClBuT8OMfrOffpCp9xxukyaOAgFepw0xepUNbYhH6kZVAAaUGbZQxl1fFiXU9dz+fnlXttgo2JG5W0gR8wWuuUjjBci2j5dcsQFogoJFgUjLKGcRWRpqMw/q4pLdRG4zZS6xO3IOHOV15/vTS1dXNoUYiPJUtXr1jhfQJhqKXp2mDVsuaFNbpKAouXG2+8UXbcfgft3sJYatt0AZGKgGkIXY/4QPvJc68wvpOHH3pI1hs6TO1skwFE8hTL9IXXIkZYBsVwY++FC5XGVukwvrepIF/RvEsTbHYCmzJliu4Yncktopdx5yQiEDNJa2qVALXkwP4D1CTLKUfYUwb6DPjz8/J1jg8GA6bDDj3UG6vASGOmPyLuH3vssTrnxfrFZAIxVB7crikKHluP+JDPisWfb7t+6MGHvIXB4YG4Ju55ROLEWCLaPKK1iO7qC8ujhVSE++2/n9IYfsNrKk72Q4zlYM4RZRgrakxe0hm2tog1OnRgWVy4Ljllyzog0jqzpjCU1tNllgk1No2jR49WTaVpHRl70PXEPpKDdyESvYBQxwlLlyYciKFWX1ie3TyEA2IiFwZjjL7RmLFS0DZ2pWsX64R+NCBSccW6MJhxt5kLIsQ4CeNbtPexHCwzW3fQIO2+pxOAlnYrEOOcvrACIxSo6jPFssYKR81KjedfKW/5ttCEGoAx2V1aXKraOIhDtyUnJ0fOPOssb1kT79s3FoeFxx9/fNKAuM3W23ha01DppwqI48eO03V8AAvwYIxONz3U8e677+ryLd5LJBBJDxcjdL/hE0MINiJduXJlqGzoPZdmDz7woCqmTENuMpOukDLQcDC8w7AkXEVPQcK2iDzEbz+bvNBFINJ0FchNV0HUo4dccvElEZt6F1isiGf7rqLCIi0DcTCv2LdPX7nf2c4tHKGwG8VwNxldU0zFTOBdoTLJSwUQWSu30bhxqq3ExA2t5ciRI9U42/Lhhi+/8oqMHTNWCvPyEwpEpncYc5pOAu1yKG/ubl7sHN6xpA0DcrTErsyk69yAiNadRi0Ufy3/EYGYCasvOhCxvkFrbCbqscjgCFdAu89KjQ033FC/gzgAkXhLiorVA8FNq24yeoQMTzj+eNW6wmAbI7rem/doW32BENH95Z1QCgasaxhLIejkg67guLHjhHWf4Y5UABHD+I032Vjz3dLQJOXFZdoSUYH5j3/+859qdsaUCX5oGLfGoqyxMSJa01AVHlYxmC7m5ubouBBaQsexY8d6y7GMn/48cU2+cOzFN8bfDrKT4sXC8JhGjGkbGrVIR0QgogrPtPWIEBdiu2ZukQpoz1A8URa6teYoGUUA84V9eveWuXN3UWsaDJ0/+OAD7S4CHIwH+vXtp8Jhac+bP983od+6DCpWILLygC4XrTIT2Jh32YH1xeeffx7SxM1V1iRyjIi2ccaMGUpXm6vEJhUDB3e5Gd4JGK9hF4tXbehBmVGE4XkAermHa/QNEDH03nP+/HZWSbzP+ka6bixCpzVswStEablUVFZ4y8l4LxIQiQOlGrKRbgBa+gbEqqoqoVGLdEQE4vNrnlfi0LRa5JkQQuxZM2dJJCe7MM1lHDXu3nvvrXNM7F2HAFEWas+iwkKdZGeVxqhRo2TcuHGy4Zgx6kSqsLDQ08JBWNJm+iKeFpGWD984tIhUBtZFxrnQ8ccdpy4iUVYce8yx8umnnyrfUtEiYvNpe0cAdrY3w60F9Nlt193UERa+OckbW6XjrgT749qqGqUjpmj9B/TvMDcLEA0Y0I6x27rrrCsL99lH50Gxvzz1tNPUyB2HW0xNQRejM91SM36PBkSWje28885eepkgp5SD1pAGAB9IdrhyafciAvGtt99SopSXlWUUEBnEs7nHS21aTyuMGxoQLeQZNp1Yz7DEprKsXIUIYqFwqKuu1TFkXm6uPgcsuMKrrWkVNhhr3aW5c+eqa35LL1bLGrSC5k/VWmW6uwg9LYYJIN7izMdJKoBIOX71q1+p5wAbX1FWjB9QcnEPw3m0zQCLFnHuLnNlq6lbKc3YbKVXSy/tURhNCF0gEh/lo6uGApD9S+iRsBIGADJM4B1+9FJoHbH35TAehhJgSw+PAswvY6uaCSC0PJSXl2lZjJ+WX38YEYjURkPWHazEs4gzIaQmhpGRmnuXeS4DASOLgm01PN1DBARgIASA0oTGBIOVAAgHQoiX7Msuu0xXDhgxDYh8S4vCe6HGiGhw8QTHcxxytb7fpC1QXVWtqt1xx9izrk5dLhI/RgUD+w9UYe3d5mB4+NBh8uADD1jyEcMH739Q1mtzMNzbcTCMFY57vPHGG6opJW9KjzZQABaseaB5WUmJ5n361q2e5xin8z4tHUbm+Hh1D655Xlla3jaH26CrKhhb0gXFVyxhz9o6pTnA533seukCm6Mul5du/O45w6hevXqpKWMmyKjlgUaMns+bvo1o3LxzHhKIJrhMsG6++ea6vRQMscjTHZIXxjDsV2HM8hfMf21l4j4tE4bEjIHwGwPz+eXjriEnR/Jz8rRVtPuEI9dfX+0kcVXv983CjrXuu5xjLmcHaZuCgoqg1dPYTy7+SY8lPxYHxtvXXnuNfs6+CWh77Rkhz2+L4HLfLStAprV1vw/lcp/8sQTLv30Ac4r2LQBh5QvKHQ4UEFah8Q57hZj3dfIAOLaZMUNbPovDDd24uY/SZ87sneTm1Td7ijijYaSQcfXFF1+svLQWPd0ySvoAsKqiQjYcNVo+btvVOlw5QgLRXmYtHRst4uyI2oqa0hJIZ0EpIIzba8ECz4mU5TlciGDYz96hxUczSM2+ePFimT5tumy88cay+aabqU8WxoKsb8PUDy9crHgPdWDzSdcOhQM/zplcpgW0NF2DAaYrqESoCEiPuTO6ecx3nnraqXLL6ls8xqE8ogX+1YWt8ZMXtiBjlTxxhzosTZ7hMxXVOd+RN0IqIfOl6v+ecmIoz3gLdxn8MMTGsRO0cl2UYCyBFwcrO91oAyLxotWmrFQGaDTxVzN//nyt3DEY4Md8Ja5BqLjI1/vvve9lKVz5vBfaTuDLgQcdqDKRTrl00wYrVIDYKlNBuUovf/65DglEIwBEXXL0Eo2MrgmR003LhNaxML9QhQRHRrEeroD6v6GVIy768izMffmVl7XltDVk/vdjuTbwkS4tjl3bt1QEpEWadA1taZc9t1bUrv2hlcf45T63Z+69zpyjCCNf/PBRg0LHDqtg7Nofhkubxc4ouWhR8RrHD+sm3In46Ryt7G6aVCqTJ09RhZsLhnSd01CAFRovtpffd9Eij36heEVZIgIRYlCLuqv0ASIJpauQpEv6FJIah1r4vxK6ZXCZxTlEoEwmKOGI4v/Oru07u44U2rtuiABHE2Li5BveQzgjCSTv2fv+vPBdLN+631le3Xv+82jx8r4bj3vujyvUNe+TRme+Q1eA4FeXt2p60ymbJp/khyEE8630uOBnpCMiEPmQcQDzIGi7UF6gvs6EgpIHuqfHHXecfPPtN+3KCBP9hzHWBMmuYwmJK1Sc/jQiXfvTsXf9900IXdBa2v537drickOLh3vhvnfft/csTgstHruOFJe9Y/GGetcfn6Xr3ufc7ltcFlqcdv3d99+rUTia8HTLpT991RBXVLSzqvHn38oRFYiMGfCIbUCkW0qr6E80HdcM7reYOLHD2sRQheWee9+9tvsWQhx77t4zosUTuvG45xZXqHv+Z7zjvue/tvf9oX1j71vof49re9d9Zu9baO+51/a++72d23uRri1OiyfUtd2z+Lhm/pD9QzAqQAbT3VtzcYBmnDlE1obaYTSwawujAhGlAJERKc2t9n/TDETNA33wyhpBPYzLwOBYeyjgAhFNLwYaGBgAgkzQX4AT8gJmmA81LbNxKBQYowIRJQY7GOHqLlNqG/JhFQLdU+bmotmdGhGCsPtQgKmrZSed5GlLAUC6gag9xrYGC896WBKZlZRRvlNAtJfRnKLGxwOXWX+4zW86zg2IpF1SVKKG1OaI1q0treBB2D0p8O4778jGEyaobDJcsh5bOmTS0jTZxGIIzf72M2d5dsORuBCyReQDAyKaO5YBFRYVqRWEJZjOUFtDZxUFrSITuqaZsrxHKnjwLDspYLxFoXPNtdd6rWE65dGfNvKJxrSgsED33PRPzYSifFgg2ssUfPXNN+t6POwzScSfcLqvCwsKBP+geAELju5NAQMi3b05c3ZWC6t0y1+o9LGnZdoPgwfTAkfiTFQg8vGrr7wi/fv2UzfoJJppYMRgm4Jfe821MRU6EkGCZ5lPAcDItJoum6qoyriGAXwgj83NzWphFQtFYwKirRpgLR+D0UwDIpUDri/Yy561hMHRvSnw6SefyM5z5mRktxRZBCNM97HYOtJSPZdLMQGRPi4LcTGQxtLe1LOhmuR03MPQAPU1Xrkvvugib6zoFjQ47x4UoJuHTSrOnnEaDe/TIXOR0kSpyfIx7Gq/+77Vi0Q06scERAqPMgRzHdtDIlJGUv2MFprKgUnd0aNGy8svveSVm25MLH1074PgJKMoAP9sXEjGsMnFWFzdY2YgCJFDlnZh7H36aafFLHsxAREC4HKvpaVFF4dmWtfUmztqW5WxaPEib6UETESb6jIzoyQtyExYChgIrSJlNZBtzY0MZpocWgPERH5jY6N6Xg9bON+DmIGIlorlMLSINL2WaCaFMIbFpuxZccMNN3jgC0Do43oWXbq8w8AfKy9k0EBoYabIIfnB48AWW2wR8/4ssCNmIGLFgAVLRZsL/kwpOPmwMasxBc/TdF9YYhQc2U0BAyJL1CZNmuTZlMJ3+O31hlLsoS2U/COHrArCzxELqN2lY9G4EDMQIQirxUvL2B2pQpooeIbMKTJgNzAagVhpj7Ojjz7+SGlgDI1GkOB5+igAj1w+2Tlae/bEyM3JzUjljMkcmKC1Zv4QhZLlPxaKxgxEIsPNw4ABA6SspMzbHiyTaiQjCCH5wuLmsMMP81ZHG6MtjIVAwTupowBjQRvPmxDjJtF2Acb9vsvjTDsHiIwP+/TpI3hW6MzRKSBiWI3jJYxZdZyYId6/wzGEqRYmfc8860zP3g9Gw3BjdGeIFbybfAoYGEkJp8H4o6XnpftgZED3M5yscR9M0EjhZsR1KRIL1WICogktIf5PaHpxAejvDkbKZDqe0WWtLKuQ2ppa9dXyw48/Kk1gNr/gyCwKuHxhsQGy1rull5QWFUtjhlf6YIFpi7LSMvXhQ1kMN7FQuVNAJEIGzZju4LVZx4kZWktBGKsoSguL1X/mRRdf7C2X6iyhYiFm8E5iKEDP69JLL1WP3yWFRdKQoTLmNi7IGuNDfL4++9xzHiFiBWPMQLQI6S7gDhBzN2w8aXVMW+lmLN3njBHdfOEcF8fES09Y2sHzG2Wz8nkUDE6SSgGjt4WWGOtf8SIHv5gGMB1EpmlITb7d/AHEiRMnelsK+MtmZQwVdhqIRHLZ5ZepE1gcz5Iha3ksc5kYQjAG0qiW2c+C/R7sMIJZaPeDMLkUgN4uzfFqd8ABB6hVCkJtQp6J8mR5QvapJOiWlpaWyjnnnOOVKZblT0bhmIFoHxDiq1K7pyWlCkK35bEMZmrIXgQFBQUyfdo0efKJJ9rZpbpC4ZY3OE88BVxao0DDNxIGI/AGo4xM8YsUixwj/6pMamxUCzSjlr+isfuhwpiAyIcu4ZjcZ+8D+u9MYMaS2Ux5h640eWbSn12DMRLHo3lwpIcC0P6SSy6RoUOGKk9sUQF8yhSZiZQPQIi2lC3VZ86c6XVL/ZiJRt2YgGjIdsGICRluFmlhsqFrCmOtGwFhcc3OGIQVG3N32UWefvrpDk5uoxEveB4/Bei2QXNoDw9sPGg6h2zpZdkkPtsRMNVih2GG1j6WIyYghooIN3ast2IXHzYgiVRrhHum4GjzHA5I+AEQfuZAmNrG7tmYASbx49q+C5dGuPsKyrqe6gEMfzxsC7Zo0SJhVyG3wrGyG2HtmT+099bG0E8L99rOjS5cQ2NojWE0tMcLW0Nd6wqacPzK1PvIYXlZuW6Ey5bm/sNffv9zu44biKj/Tz31VB2gsggynqkMq/UMYIT0tVniwuYmrH/kxzlbMhcVFOq6Q4Bp3xLaeTzMApCAnvkfhIIdffHRg7BQRv8BYY247rn/vbXt2mhhtPGX/9//+bfSFNoOHz5clWZU4tAeHsTDu3R/g8wj+yhpli5dGlJe/HQIdx03EImQjTcHDRyk8ydxEcUxWQKEzPdttulmuvMrG57cc8896rOUOaVDDz1UZmyzjfTt00f9lNCVAZCk25XxhFUCxKOar5JSreHGjRkrxx93vA6+zVWjn4gmfP77a+N1OABi+PzMM8+oE6UNRo0SNr1l6gsBxmStK5VoXDKXwDlJgMh8OtZbKJu6cnQJiGwqgskbiyBr4qzZYARgYFPQPfbYQxd+sruvy1jGE+ym88knn8iTTz6hbvZtL3oAGa8NooHQamQVivoG3Q+QeSy6TP3795fd99hDbrzxRvUo7uarK4Tvzt/CLzauwTKGHa/69eunlVtp28JyAx+hDhEybBVFLAC3nhTTYT/bfQ/PpC1evnYJiCTKhpfV1TVa05lAx1IQ9x3GgRhoX7XiqpjKQS3LDkDnnXeebhzKt24XB4AZs910/OdefttqZvuG+8RRWV7euiNuSZk0NzXpPvFUFux5j1Evxg2xHtkCYDefnLvXkcpK5cmyM7aQmzNnjgwZMkT3SSkrLlFDCm0BwzgeM0D6+ZOJ1+TVFH/MS1dWVnqe5kMNZSLRzH0WFxBd5vzj669VbQvBtavYCW/LCDtCT+GK8gpk2xkz2m2JTc3qLxwDYnbXYZEo++KxNzk1UnFxsS4I9sAVQxck2rs851enW1iXCHvFlxaVKChpkVFXLz3hBLnrrrt0btUMfV0ChzqnTP5yhXovHfdc3oZLn3d0e7VXX5FbVq+Wnx95lG5JruBraNBFAYzn6a1AO6MjwLLKzg+yaLzwv5/ua8qB9/stp0yRP//5KRiESgAAFw5JREFUz0qqWDWkoegaFxCJyGXY6tWr1e9pRWmZR/RwBHcJaO8Qsp0zgn7kkUd6JmikYT/LPJuCouFkpfaqVav0NhtmslU2TGcPdeJLJGOJq7mhSX84qaKLRV4L8wt0oXTfvn1lo402kt13201N6K679jqtIKg0/vrXv7bbvNPK4dLP7mVaSB5xT4GGHOUV+0xccuklctSRR8qs7WbKiPWG63bZjJPYzBZ6KPjaPDhoy9GYnYoYV047nDc06KKHqsoqWXHVVR4WqFzj5WuXgGiJ0jKxIh4tmIGrQ+bDtFA2TuN9ClZRWaGKGdctIulYWp9//rksX75cFixYIA8++KB3H4H55fnn61RKcUFxQrVwPevrdRxq1h6mHCLvajZXUKjdL4QQZQQVxeDBg2XMqNGyw6zt1c/KKaecIldeeaXcfPPN2npmGujIDzSme4mjMGjMOkDoPHnyZBk5cqQMHDhQ+YtpI2VlNy7sdzFHa/BNJXVWDmKVl3S/R7n40eKzzbltLtvVHk7cQDTGmUBhHcGkZutURuy1oMswBFyNfcvKZKutttIa2OJ300OLCQHMFYGF//r3v+WSiy+W6qpqrRQMMF1lnrsnpDGC0FpKQn6MdQEm0yAIaV5OrrYSmGzhgh3LfLYQwxFXph7PPvusTJ4yWSfZ69vKo9NJuXm6lwNdc3hswwp6CpTdaGz0sevuFlLW1l5RqZx11lkeG601tAbDexDjSZeA6KYBMLA8h2l0M13mdIYZMJbatqiwUFuVo446SrfQtrT8BcVaf/Hixepc+Llnn9VuIHu6V1fThSxVAXHB3pm8dPrdhtapFMqu5W9oXSxqyii6sCh6Yh1LWplTGbIi/sZVN8qgQYNUgWbAsjLFy9dO0zJMDyqd8VB29CDMa48fPz5m58Gx8C9hQCQx/PyjNGn1afNTLdlZ4hmz83JbJ/J33WWuvP7aa155XDDiz4SuIJrT7bffXkGLLSxjTfJCC2vxdTYf8b5vwsu0irXydXV1agLVlQG9R4AknRhdqd3p4TA/putOnQ1/4qVJd/muuqJSjREuvPDChHIhoUBEMbHddttp16y2Jj6LCWu9CK11zOuRIzO2mSEvv/KyFh6BsR9TCGeccYbQ2my22Wbe+AsFDnkpKijQLmMqweim1dLYrJXE3Llz2/laTSgXExiZgZF52913313zTnmML90FUJ0tBzSgNSwqLJKpU6eqAiuBZI/dnWKsid5+++3qEZyWCCB1tsDGcEIFY2OTjknyc/NVacBEsR0mNMxhMYWA8oZzO5jjHNCnnxQXFHXJ+iaeMsA4fvhY7d27t9x5552aLatALO+W10wI/Xm777771KCBMS80MJ50lh7d4X1kGbcr9LJWrlyZcHYlrEU0wWL8s8vOO2vNUVtVExcAXDCaQLM8hu7nlMlTPBeJUMPSDUeZJUuW6HQDmr2WpmYFR7IFys0/eT7wgAO9CsIv7OHynY77RksL0UTTxacMGGUnm26ZCFjKzPCirqZONaWzZs7yls0lcpiRcCAiQGjeWpqb1aYQ4pqGLVZCmyC77wNIrGcQCpy3umsITbhNeJlrZIxD9/TTzz7TyWa6FJqPnq3drFBpuOl19Zz8FhcVqfvJhx58yLKWdeEjjzyiZcCMkTJ1lS7Z9r2VmbEy01gP3P+A8hCZ6+qUhSsMSQEiGTzyiCO0GQc8ED8Rgg9RanBJUFIqV1xxhbe6HqJY7YTWjz48XQhqc2p1hKmpsUkKcvPiaqE7KzxWi1JpzJ8/T9DsZuvx5d//Lvvuu49WgImaDuosPdP5PmVGhtHi77vPPjplZj2GRPI0oUC0uRQy+N5778m4ceO0ALREiQAiDAGMWHEMHTpUnnrqKY8WBkSAN2XKFBUclqfY2Oy4447TvNBFJY5E5SeUkBC3bRNHy5ztx/XXXa+9CcqUTLqFomW679Elx3wTk0asizhcOU8UbxMGxFAZxJIEMJgKPFFExcKF1garD2tt3G4C4FtnnXXUwABLFg4scn42b57git98siZLqAA6E/rjxo7L6Mn7WIXopZde8rZCSxQPsyEeWkMUNPDy3HPPVXLZMMjCWGkY7b2EApHE3GYbkMz72Txhj3tcLyKggMgAYGE8TAHczHOxPMlaQzftO+64Q1ZctaKdMQC2nyzLYbExLWOiulpWDkJ+xEtFwd4bVADZfjAeX7DXgrWie2q8RFbra+vVMgrjfjNlMxnPeCD6he6VV19RO0VsEuvr6rzFoCa08YCQbxD2vNxcmbj55ronh0sgfx5cgLK9HPNjOTk9pKSopLVy6KISgrLQ/bayMKgH7CeffLJXSfjzlE3X0A9zLoYEbjmtvN0hNADaMIprFHwMgZ5zHAYni28JbxEtoyb8hKywRzDLSko8YbWCU/N0lpF8y3eEOaxjvOoqT+BJz37khS4rPzS5t9xyiy4uZoHx/vvvr11X7EExQWNqI94WknxonhqbNI5W29IaNWczemR7eNutt0mv5hbtqnWWX9nwvvFQ+djQqGaWmLLRJbUeVzJ5mHQgknlWZ9C8s0yGGsdARKHjYZJ9RzzU0swt2moNGyu6YKRrhZUNZmY77rijvP7G6+p6/8wzz9QaL6dHjhTm53uLiwEkcfOLlD+e27sAubaqWstIt3TIOoPlscceSybvUho3irENRm4gBbn5UekSiWaZ/MxAiLF7fm6e+ll1u6TJJHjSgEimAYMB49VXX1Whx4GsgTFepkAw4rBuBK3iqptu8lpCF4Tkg3HahAkTdIzTOqUw39uqDesbuqqD1mk1ciYuxrSsoqClxC8JYDPA2Tlp60qLwiIPfFQ0A/r1Vwug8887z1swmkwGpipu9jzZcsstW8eJcVhMxcvrVH2nIGzTXyAjbD+4Zs2aduRFrpJ1JB2IbubporKgl5XN2trE6TwIovEzJrGB5d577eUpRtw0jXDMO6677rrqX2eHHXaQ999/3x7pig3M49DCYlWP3SqOpIryCyW3R44uZ8rLydNuMF1ZfuxQVF5WpkubWJm+6aabancXEz9bsU0C/krBSzRLToyWdOdRdCGk8ZguGq8yNVR5amjQBQvsdob9sh3GQ6OF3U9kmFQg+jP6w48/yCGHHCLF+YUJdauOBrRf377qP8fSNKJZyH3sUVnsykpzVmi4B9fMQdLFveP2O2TZictkl513UbX92LFj1W/lmLFjdSX+phtvInNmzxbM56hc6IL+LcSkvTHQTSdbz9GA4yisuwKRng4T91Syey/c2zNJTBW/UgpECsVE/+SJW2h3Dmv2aOOwWGpQajME5Oijj/a2XXNB4ILRT1gG4vfde58CFJ+buP6z46t//EPQsn744YfCBimcs8IEofz7V19pa2fvMpZ49JFH5M477pTfv/uuDvDplrv5sHezKTTaUUlhWtgdgYgMMtRgaEGPiG54qo+UA5ECPvroo7roF3cDDfVd300KIOJDBse1aEc5TIDcc7tnIc8wUt9sk01VwBCyYcOGycOPPKxxuH8fffyxtnxPP/W0N76058xPooXt1dIiJcUlMnvHHYV7HKTlpmffZEtoecd15qGHHdrtgAgI8cCALDIuxE45HUdKgWhMpaBMOeA6AmNid7wXSwsY6h3iQPtJ98kMwg0EFoZqoXC7sffee6stanlpue6GfNHFF3lKJvLKPNKs7WepP5qqqmr5+S9+0W6C9+qrr9ZnAJnfiPVHtGtZ3XKng8mJSBN3JLYSo7uNEdlum/032FLNjlTzLG1ApMCM1wAirjES0UWlj8/6P+w7be4HgnJu2lsjNKERm1bxphtXycEHHSxMadAVdQ8UPfU9671WE49teDm3g+72fosWqzMhDM5/85vf2CMvDe9Glp6EAiKVXyIq0VAVa6ruoV/AsGO//fbroDdIJatSCkQKhvAbAFgFjhmY7oFQlZhVGhgO4J2baQk73DTtnj8vXP/HUU+736DAOXHZiTJ29IYyZdJkuemmm4Sumn7Ttj8Ge77TEjOWssPKadfZHHY3IFLxMz2F7LEDNkvmOFy+p5JfKQWiFdIVUFqTGTNmCFMQtGjxtIwMtPnOfpi+4YnMbbXcNP0E9j9z82nPcMnBtATKGn9ra++48Ya65z7PtvPuBEQ0pCgKUc5QsfpXVaSDdykFIsJHIe1nwoiCBb+ZrIzAHjUeMNKVgcCNbfOL7B617bbbyosvvmjJdAiN4G7X1fJmz+za/7Hdt9DGn7xn3/rP/XFk0zVAPOKII9opa7Kxa4pskW/2WkG55988xvjp8jAVfEopECMVksW7Q4cNVasWYzAh4OosMPkOQGIriEMpJuv984ZGXMsT1wDSGOCeu++E+s7uEdr3FrrPsvmcLvchhx6S1UA0OUJDinHHvffe24ElxjcLO7yQpBspBaK/DFZYCyEM3qTpMhgIDZTxDN7r61pXQfTu1Utwf2drF8kHaVor5raI/jzGc23lsXTc63jiy4RvshWIJj/aW+rZoNMUWE6xAMA90s2jtAIRQkAAlwh4yMLrGYsxrWXTME6HsyxJQivLb5+FC3Wh7vf//N7lgZ4nGowdEsjyG9kKRKvA2RKAOd7m5ma5/IrLPZlzZS+dLMoYILLzEwetFHOMEMzAaHtOGFFjCc0gHKNtgIwXOPyODBk8WI4//nh58be/9TSfyWRApjC6q2XMdiCytpCtwjFJpNLlQNaQu0zgUcYAEWIYQSDOpZddqh68S4qK1Ljb+vexgNDeMTDaNepqDM6pGXs395LFixbrOAGDZpQRxqCuCC1xMLVBfDCaw8rVlXjT/W02A5EdihsaGnR4wjST8cT44speuuicdiD6C27EgWA33HCDbvvF6n7rnvrBZSCLJTSNGa0jG6ngDY7VIH379NV1iuyZgWIHdTZ2pTgrBlDkhcrBflwznYEhAPsEvvPOO+rIij0bzzl7uUzaYgtZdtIyz3DYyuQvazZcW96zEYjIijpHbmyUK668wlPYWZkyif4ZCUQjFK3LdddfJy0tLTq1ARjjaRn9ILU4mEtSQBaXtK5BrKjwljVNmjRJtp81S+bNmycHHnigHHnEkfLzn/9cjjj8cG1J58+fLzvOnq27Vo0ZvaH0aumlPnTYEQszN8zmTDlk5ckkxnc2L9kGRJsnpCWkO+q2hIno+XSWftHez1ggGrEgIA6iBvTvL/k5eV3aaSoUIA2UGBOwBpE1hnRl+JUVsytVkW46gp9U/RUVCYubSwqL9Lnap7YpgyorKtXvKkDE5jUAYoO3ZtRP+2ReA0K2Wejbq4+CkN4LBxUiwwWTrWjgSOXzjAUiRLOWhC7hPffcI0MHD9GFurpyPoobi1gYbd1cU22jFLLuK8wkHbYNYANVWk77AVi6tzznPeIhPb4nru4EROMBjpsPOuigjJ9HhBe6kqJff7lh5Q06hDAQmkxZmVIJtGhpZRwQLcN+YnH99NNPq8sL3FkABoTfxo6xAC/UO3xvcbjnrqYWcFrLqYBr28pbQdvzp+95xsoEPxCtTNkcZiIQjV/GG/blzMvJUd862Br/+K+fFDPQ3mTKwkziR8YC0YgE0VzCvfHGGzJz1kzBhM18kxojQgEtlnsGxFje9b/j7ibMswCIqe2OWi+G3goyMXXqlilxf2jymagw44FIQf1gxN/MoYceql7E0Yq5rZcfKKm+DoCYPCBSYdowwPgK71n6hhzss88+qsE2cDAetCkku5epYcYD0VpDPxhZcoTPSRiDEoc9CrraMhpzuxIGQEweEOGL9V50WIA9cW6uLurFmXMop10BEBNY9RgILbSoWV1/2623Sr++/XRchgIl3WAMgJhcIAJGeIyWm7E42y6wZTxjWDtMTgiz5cj4FjEWQj7//POy+x57SH5evk4r6LihZ6tzYFpMG9RbbdqVFi/atwZE5hFZu5jthwlzOpQ1AI6fdUeNr1hGMR6cPXu2PP744+10CNlK724BRIiPmRpuLrCsp6akdTTQGBDtOpmhAXEvx89qtgoH+U4nEF0+Aci6mtZWsLmpWZYtW+Z5d89m+lreuw0QKRATt3fedadMmzZNcnJy1A0CwGiM05GxKwixnnc3IJqgpKNFtB4M2xngVZ2F4xMnTpSV169MicG+lT0VYbcBojso/93vfqee1phst9YRZlKrxgqoeN8LgJiYMSK80v1E2saC7FOIqaG5tTBwWItt19kadhsgwhCXKRhkYzSOVzUMAFhSBXPNisa6q1xzzjO7Fy8I+c6AuOeee7ZzuZitAmI0ZSMhPJ1RsWkvI871oS5tXXrbufGIayxkSI/tDK668ipvSwVo6ed3ttLX8t1tgGgFMsGxa7w2H7NkidqqwlQzAsCVRkObMMF0V0C6cm5AxCjcVadbfrItNHpiN8s8XSKA6ILOlGlWEUI/rKZIp6mxSQ4//HBhx2I7yI/1fixv9iybw24HRGOGyySWMt19992y8847S11trTIZO9EWnE05NXsiAGlAxE3kn/70J8tO1ocAMRl7X0BzwNirqcWbksBKBheHN65a1WFaIusJGaYA3RaIlNetPblm/4qLLr5YJk+arI6lGPzTMtI9pUa22tkFZ2fPDYhs9Wa+MsPQPqtuJwOI0Ftbwjom5vNUwbbJxhvLOcuX6x4pRiD4aD+7193CbgtEl3Gcu8frr70uxx1/nO5zQReIMWTP2jpVDiAYnQWf+34AxNiUNTo2xyoqN097KIMGDZJf/OIX8uILL8p//tvq2QCeGR/pjlqX1OVldzlfa4BoDHUZh4X+gQcdqD5VASNOjtG0tjS217BalxWQRgOqAXHXXXfVVf4mTG662XjelRbRbIGhHbRleACt2Xty+LD1ZPHixXLfffd1AJrLM84DIGaj5MSYZ5iLdQb7No4ePVotNhAQFvmqJUcntakGxLlz56qRAdlAiLL1sLxj2xurssaUMdZTgCa0gChhACBzvMNHjNAdtNh9ifWma/vRbVvEWBhrQsa7dIfYJ/6AAw6QMWPGiLm8YCIZQbKW0C9kJmwWGhBR1uDPJtsPoxHTF7Rcqs2M0n23HoSNvSvKmYzP1cpt1AYbqNIHh9LmvgIaWTrZTq9487/WAxEBcIUANwrYrmJCxfxVVWWlCh9jmfqaWgWkgdLA54bNDY36PqvZbaMaN/54GZXu7/CUzkawANEtr/8c2gBAuvg4iub90pISGT9hghx/3HHy9JNPqUMuKw89EmjenbudVtZIYQBERyPnBwxWHGeffbbMnDlThg0eqmMaBAuvcmj8EDir9U0AmYSurKyU61eujET3rHx2++236/iusKCgtextPQXKzg+a4OsHGjHm7t+vv0yfPl1OPukkefnll9tVeEZrf5iVhElAptdqIPrph1DYz31Gt+z+3/xGFi/eTzafuLn07d1HtX3st85mJtT8WO4gfKWlpbrvo628CBWfG3c2nBtY2EbvpJNO0m474+iCvAL1fsduzVxDD7zZTZgwQebvOV9W37K6g3WRxeXSxT3PBnokI48BEDtJVeYi2RYAreiGG26o2z3j7pE9Gdl//ZRTTvG8t3Uy6qx4nUrp9NNP17JSZjyy9+nTR0aNGiW7zN1FvbTj5zU4OkeBAIhR6EVtHWr8gqLhtddeU4sdbFrvuOMO+f3vf98hNmsBOjzIkhvhWivKeuedd8r1118vN998s5qh+bWf9m220yAVrAqAGAOVTZkQi2DZOzFEmxWv+Mvjvw5XCCovfrG+Hy6eteV+AMQonDZBIrTDPbd7hNw3AfTfd6+z+dzKZ2UNVRaeGY3c81DvBvdaKRAAMZCEgAIZQIEAiBnAhCALAQUCIAYyEFAgAygQADEDmBBkIaBAAMRABgIKZAAFAiBmABOCLAQUCIAYyEBAgQygQADEDGBCkIWAAgEQAxkIKJABFPh/9hbOuQf4jMIAAAAASUVORK5CYII=;" vertex="1" parent="1">
          <mxGeometry x="23" y="-770" width="226" height="231" as="geometry" />
        </mxCell>
      </root>
    </mxGraphModel>
  </diagram>
</mxfile>
